<svg width="10" height="10" xmlns="http://www.w3.org/2000/svg">
 <g>
  <title>Layer 1</title>
  <path stroke="#FFF" d="m5.5,199.5c0,-1 0.086851,-0.963837 0.74958,-4c0.864093,-3.958679 2.063125,-9.088303 3.747899,-15c2.028736,-7.118622 5.819592,-16.145569 10.494118,-26c4.335719,-9.140182 9.55909,-18.169937 14.242017,-27c4.329368,-8.163391 8.290534,-14.95031 11.993278,-21c3.035641,-4.959755 5.044389,-9.228851 8.245378,-14c2.120941,-3.161308 5.247059,-7 8.245378,-11c2.24874,-3 6.168181,-6.729622 9.744538,-11c3.159539,-3.772675 6.662684,-7.194092 10.494118,-10c4.407865,-3.22805 8.164205,-7.195759 13.492437,-11c4.433359,-3.165318 8.994958,-5 11.993278,-6c2.998319,-1 4.497479,-2 8.245378,-2c4.497479,0 12.742857,0 20.238656,0c5.996639,0 11.282414,-0.640728 14.242017,0c2.339772,0.506542 4.462457,3.071934 6.746219,5c3.693341,3.118099 7.670257,6.73325 11.993278,12c4.696655,5.721947 9.737847,12.132805 14.242017,20c3.668247,6.407127 7.967271,14.639725 11.243698,23c2.644964,6.749001 4.717471,13.881371 6.746219,21c1.68477,5.911697 2.860633,13.071304 5.247059,21c2.127157,7.067322 4.497479,14 5.996639,20c1.49916,6 3.43286,13.156876 5.247059,19c1.924253,6.197571 3.634277,13.045105 5.247059,20c1.401093,6.042038 3.494783,13.066147 4.497479,19c1.200064,7.101898 3.420713,13.702499 5.247059,19c1.980961,5.745941 3.143807,10.88855 5.247059,16c1.613125,3.920288 4.077465,10.436249 8.245378,17c4.111206,6.474426 8.546807,11.543579 11.993278,16c2.691241,3.479889 5.045527,7.284149 8.994958,12c3.576357,4.270386 7.164632,8.519287 9.744538,11c1.359734,1.307465 2.73658,2.679138 6.746219,5c5.006136,2.897644 9.744538,2 13.492437,2c2.24874,0 3.637503,-1.173096 4.497479,-2c2.719469,-2.614899 7.594529,-5.769928 14.242017,-11c6.09116,-4.792358 14.376364,-10.589905 23.236975,-16c7.620355,-4.652832 14.007247,-9.275513 17.989916,-15c4.386579,-6.305054 9.19784,-13.73822 14.991597,-22c5.443718,-7.762619 9.881493,-15.911224 12.742857,-24c3.150761,-8.906845 6.041657,-17.973541 8.994958,-27c2.283647,-6.979843 4.497479,-12 6.746219,-16c2.24874,-4 4.137146,-5.558197 5.996639,-9c1.960098,-3.627991 5.128016,-7.401627 10.494118,-10c7.356259,-3.562042 15.741177,-7 21.737816,-10l5.247059,-4l5.996639,-4" id="svg_1" stroke-width="1.5" fill="none"/>
  <path d="m0.072963,5.078563c0,-0.022447 0.015041,-0.022753 0.022447,-0.112233c0.011262,-0.136072 0.004861,-0.294892 0.044893,-0.471379c0.031404,-0.138448 0.069482,-0.246405 0.089787,-0.3367c0.02511,-0.111668 0.053349,-0.244384 0.089787,-0.381593c0.029377,-0.110621 0.055566,-0.221367 0.089787,-0.359146c0.032913,-0.132511 0.070656,-0.26809 0.112233,-0.381593c0.04883,-0.133303 0.089787,-0.246913 0.13468,-0.381593c0.044893,-0.13468 0.075359,-0.252616 0.13468,-0.381593c0.054691,-0.118911 0.09124,-0.21095 0.157127,-0.336699c0.052088,-0.099414 0.129187,-0.182536 0.179573,-0.26936c0.040622,-0.069999 0.104351,-0.161521 0.157127,-0.246913c0.059004,-0.095471 0.152553,-0.160746 0.224466,-0.246913c0.064321,-0.07707 0.112233,-0.157126 0.179573,-0.224466c0.06734,-0.06734 0.13468,-0.13468 0.20202,-0.20202c0.06734,-0.06734 0.151442,-0.120569 0.246913,-0.179573c0.042696,-0.026388 0.063384,-0.033361 0.112233,-0.044893c0.043692,-0.010314 0.112233,0 0.112233,0c0.044893,0 0.069101,-0.004717 0.13468,0.022447c0.092743,0.038415 0.160544,0.05016 0.20202,0.06734c0.029328,0.012148 0.01849,0.033361 0.06734,0.044893c0.043692,0.010314 0.087684,0.024768 0.112233,0.044893c0.062589,0.05131 0.114196,0.085161 0.224466,0.13468c0.091575,0.041123 0.141643,0.083479 0.20202,0.157126c0.05131,0.062589 0.108821,0.136469 0.157126,0.224466c0.062983,0.114735 0.103412,0.205964 0.157126,0.314253c0.058161,0.117253 0.107608,0.226429 0.157126,0.3367c0.041123,0.091575 0.093103,0.223196 0.13468,0.336699c0.04883,0.133303 0.100236,0.265725 0.13468,0.381593c0.032614,0.109711 0.057208,0.241749 0.089787,0.3367c0.037145,0.108261 0.035636,0.247296 0.044893,0.359146c0.011261,0.136072 0.033632,0.24552 0.044893,0.381593c0.007406,0.089481 0.033615,0.200354 0.044893,0.314253c0.011059,0.111687 0.025569,0.246334 0.044893,0.359147c0.026797,0.156443 0.044894,0.314253 0.06734,0.448933c0.022446,0.13468 0.068907,0.291554 0.089787,0.426486c0.024272,0.156855 0.076296,0.311966 0.112233,0.47138c0.030026,0.133195 0.055566,0.288707 0.089787,0.426486c0.032913,0.132511 0.044893,0.291806 0.06734,0.471379c0.022447,0.179573 0.028059,0.361735 0.06734,0.561166c0.03158,0.160334 0.06734,0.3367 0.089787,0.47138c0.022447,0.13468 0.04223,0.269925 0.06734,0.381593c0.020304,0.090295 0.05597,0.154401 0.06734,0.224467c0.010787,0.06647 0.022447,0.13468 0.044893,0.20202c0.022447,0.06734 0.048132,0.133202 0.06734,0.179573c0.027164,0.065579 0.070579,0.155648 0.089787,0.20202c0.027164,0.065579 0.037992,0.116408 0.06734,0.157126c0.018561,0.025752 0.031848,0.076742 0.06734,0.112233c0.035491,0.035491 0.075111,0.083175 0.112233,0.13468c0.029348,0.040718 0.060729,0.097557 0.112234,0.13468c0.040718,0.029347 0.060728,0.052664 0.112233,0.089787c0.040718,0.029347 0.091547,0.040176 0.157126,0.06734c0.046371,0.019208 0.112233,0.044893 0.179573,0.06734c0.06734,0.022447 0.13468,0.022447 0.157126,0.022447c0.044893,0 0.06734,0 0.089787,0c0.06734,0 0.13468,0 0.20202,0c0.06734,0 0.131954,-0.011077 0.20202,-0.022447c0.044313,-0.007191 0.108277,-0.033361 0.157126,-0.044893c0.065538,-0.015471 0.086481,-0.026332 0.112233,-0.044893c0.040718,-0.029347 0.120584,-0.031091 0.20202,-0.089787c0.051505,-0.037123 0.108928,-0.093672 0.13468,-0.112233c0.040718,-0.029347 0.06734,-0.06734 0.112233,-0.112233c0.06734,-0.06734 0.122345,-0.144792 0.179573,-0.20202c0.057228,-0.057228 0.105332,-0.116408 0.13468,-0.157126c0.055684,-0.077257 0.14127,-0.150988 0.224466,-0.246913c0.073535,-0.084787 0.146324,-0.169275 0.224467,-0.26936c0.080548,-0.103165 0.13468,-0.246913 0.224466,-0.381593c0.089787,-0.13468 0.152007,-0.272043 0.224466,-0.404039c0.062984,-0.114735 0.16948,-0.238859 0.224466,-0.3367c0.059221,-0.105378 0.089787,-0.20202 0.157126,-0.314253c0.06734,-0.112233 0.131338,-0.190467 0.179573,-0.291806c0.039775,-0.083567 0.071611,-0.176914 0.112233,-0.246913c0.050385,-0.086823 0.096264,-0.176617 0.13468,-0.26936c0.027164,-0.065579 0.057045,-0.150453 0.089787,-0.224466c0.037441,-0.084638 0.061312,-0.203746 0.089787,-0.291806c0.03719,-0.115016 0.041464,-0.202948 0.06734,-0.291807c0.019846,-0.068152 0.05597,-0.131954 0.06734,-0.20202c0.007191,-0.044313 0,-0.06734 0,-0.089787l0,0l0.022447,0" id="svg_5" fill-opacity="null" stroke-opacity="null" stroke-width="0.5" stroke="#FFF" fill="none"/>
 </g>
</svg>